<svg width="20" height="20" viewBox="0 0 20 20" fill="none" xmlns="http://www.w3.org/2000/svg">
<path fill-rule="evenodd" clip-rule="evenodd" d="M16.234 0C17.2659 0 18.1484 0.366404 18.8809 1.09908C19.6136 1.83175 19.98 2.71436 19.98 3.74628V16.2339C19.98 17.2658 19.6136 18.1483 18.8808 18.8811C18.1483 19.6139 17.2658 19.9803 16.2339 19.9803H3.74628C2.71441 19.9803 1.83188 19.6139 1.09908 18.8811C0.366404 18.1483 0 17.2657 0 16.2339V3.74628C0 2.71436 0.366404 1.83188 1.09908 1.09908C1.83188 0.366404 2.71441 0 3.74628 0H16.234ZM15.2975 8.03905C15.2975 7.88269 15.2931 7.76582 15.2844 7.68778C15.8307 7.29736 16.2861 6.82475 16.6503 6.26977C16.1647 6.48655 15.6402 6.6339 15.0767 6.71208C15.6662 6.36518 16.0696 5.85781 16.2864 5.19024C15.7229 5.51965 15.1416 5.7409 14.5432 5.85361C14.0143 5.28123 13.3507 4.99497 12.5527 4.99497C11.7984 4.99497 11.1544 5.26173 10.6212 5.79507C10.0878 6.32845 9.82114 6.97224 9.82114 7.72682C9.82114 7.97823 9.84287 8.18645 9.88616 8.35119C8.76753 8.29055 7.71812 8.00857 6.73823 7.50567C5.75844 7.00272 4.92576 6.33073 4.24075 5.48949C3.98925 5.9231 3.86359 6.38267 3.86359 6.86836C3.86359 7.85695 4.25815 8.61563 5.04732 9.14474C4.63968 9.13594 4.20607 9.02322 3.74659 8.80658V8.83259C3.74659 9.48294 3.96337 10.0617 4.39707 10.5691C4.83067 11.0764 5.36392 11.3905 5.99695 11.5121C5.74554 11.5813 5.52434 11.6159 5.33358 11.6159C5.22086 11.6159 5.05178 11.5988 4.82639 11.5641C5.00854 12.1105 5.33148 12.5614 5.79552 12.9169C6.25943 13.2728 6.78635 13.4548 7.37596 13.4632C6.36996 14.2439 5.23826 14.6341 3.98077 14.6341C3.75543 14.6341 3.53851 14.6211 3.33038 14.5952C4.61389 15.41 6.01007 15.8179 7.51888 15.8179C8.49007 15.8179 9.40079 15.6638 10.2504 15.3557C11.1005 15.0481 11.8288 14.636 12.4359 14.1203C13.0429 13.6043 13.5654 13.0101 14.003 12.3381C14.4411 11.6661 14.7664 10.9637 14.9788 10.2307C15.1911 9.49815 15.2975 8.76753 15.2975 8.03905Z" fill="white"/>
</svg>
